<?xml version="1.0" standalone="no"?>
<!DOCTYPE svg PUBLIC "-//W3C//DTD SVG 20010904//EN"
 "http://www.w3.org/TR/2001/REC-SVG-20010904/DTD/svg10.dtd">
<svg version="1.0" xmlns="http://www.w3.org/2000/svg"
 width="83.000000pt" height="83.000000pt" viewBox="0 0 83.000000 83.000000"
 preserveAspectRatio="xMidYMid meet">
<metadata>
Created by potrace 1.14, written by Peter Selinger 2001-2017
</metadata>
<g transform="translate(0.000000,83.000000) scale(0.100000,-0.100000)"
fill="#000000" stroke="none">
<path d="M318 816 c-222 -64 -344 -317 -259 -535 72 -181 236 -285 439 -277
108 5 191 34 270 96 l23 18 -32 36 -31 36 -41 -29 c-79 -53 -219 -80 -298 -56
-64 19 -133 62 -177 109 -146 161 -99 403 96 493 132 61 293 8 356 -119 94
-188 -85 -393 -270 -309 -87 40 -124 134 -84 215 32 68 106 94 169 62 27 -14
49 -49 45 -73 -1 -7 -2 -17 -3 -22 -1 -13 -30 -41 -42 -41 -5 0 -9 13 -9 29 0
19 -8 35 -21 45 -19 13 -26 13 -49 1 -44 -23 -52 -66 -23 -116 33 -56 121 -68
179 -24 87 67 87 190 -1 262 -143 118 -357 7 -357 -186 0 -151 119 -264 278
-264 124 0 230 68 282 181 37 80 37 193 -1 272 -58 122 -176 199 -315 206 -47
2 -96 -2 -124 -10z"/>
</g>
</svg>
